<?xml version="1.0" standalone="no"?>
<!DOCTYPE svg PUBLIC "-//W3C//DTD SVG 20010904//EN"
 "http://www.w3.org/TR/2001/REC-SVG-20010904/DTD/svg10.dtd">
<svg version="1.0" xmlns="http://www.w3.org/2000/svg"
 width="500.000000pt" height="500.000000pt" viewBox="0 0 500.000000 500.000000"
 preserveAspectRatio="xMidYMid meet">
<metadata>
Created by potrace 1.16, written by Peter Selinger 2001-2019
</metadata>
<g transform="translate(0.000000,500.000000) scale(0.100000,-0.100000)"
fill="#000000" stroke="none">
<path d="M2967 3628 c-13 -18 -50 -68 -82 -112 -40 -55 -60 -75 -65 -66 -6 10
-14 4 -29 -21 -12 -19 -21 -39 -21 -45 0 -6 -9 -19 -20 -29 -20 -18 -20 -18
-5 25 23 64 16 198 -10 207 -6 2 -37 -58 -69 -133 l-59 -135 24 -17 c13 -9 29
-15 34 -14 6 2 -52 -56 -129 -129 -76 -73 -155 -156 -175 -183 -46 -63 -63
-93 -25 -46 51 65 168 175 324 305 115 97 177 157 239 235 98 122 107 130 121
98 8 -18 9 -11 4 27 -9 78 -19 83 -57 33z"/>
<path d="M1765 2979 c-11 -4 -31 -17 -45 -28 l-25 -21 42 0 c24 0 48 6 57 15
13 14 16 13 26 -4 5 -11 10 -35 10 -53 0 -30 -3 -33 -32 -35 -18 -1 -55 -3
-81 -5 l-48 -3 28 -23 c44 -35 97 -48 124 -30 21 14 25 12 52 -19 16 -19 32
-31 35 -28 3 3 -6 18 -20 33 -42 45 -69 112 -33 82 22 -19 68 4 99 49 14 20
26 40 26 43 0 3 -17 0 -37 -8 -21 -7 -47 -13 -58 -14 -12 0 -26 -5 -32 -11 -7
-7 -14 -1 -23 21 -15 37 -38 51 -65 39z"/>
</g>
</svg>
